<svg id="Layer_1" data-name="Layer 1" xmlns="http://www.w3.org/2000/svg" viewBox="0 0 1024 1024"><defs><style>.cls-1{fill:#00274c;}.cls-2{fill:#ffcb05;}</style></defs><rect class="cls-1" width="1024" height="1024"/><path class="cls-2" d="M878.8,871.33a23.55,23.55,0,0,1-4.61-.45,24.7,24.7,0,0,1-2.53-.65,3.43,3.43,0,0,1-2.4-3,12.32,12.32,0,0,1,.18-3,12.84,12.84,0,0,1,2.53-5.62c.43-1.67.86-3.38,1.27-5.13.58-2.51,1.12-5.07,1.61-7.62-1.23-3-2.55-5.9-3.93-8.77a183.12,183.12,0,0,0-10.17-18.4L845,790.2l-69-57.91a3.2,3.2,0,0,1-.27-.25,324.72,324.72,0,0,0-52.07-43.72c-5.59-3.76-11.38-7.41-17.24-10.83l-18-5.09a76,76,0,0,1-8.09-1,74.69,74.69,0,0,1-12.12-3.23,3.61,3.61,0,0,1-.71-.35c-7-4.49-13.85-9.13-20.48-13.81-7.77-5.49-12.74-9.65-18-14a294.42,294.42,0,0,0-29.83-22.35,181.63,181.63,0,0,1-18.12-13.8c-5.07-4.39-8.49-7.85-11.8-11.19a142.42,142.42,0,0,0-12.05-11.2,132.36,132.36,0,0,0-17.59-12.14,3.23,3.23,0,0,1-.63-.47c-7.37-6.89-14.39-10.38-20.88-10.38-.41,0-.8,0-1.19,0-5.67.37-9.66,3.34-16.28,8.27-3.57,2.67-8,6-13.74,9.59a159.62,159.62,0,0,1-25.38,13c-11.37,4.28-20.07,7.51-25.14,9.39l-1.94.71c-12.33,4.56-16.49,6.09-22.05,9.51a73.72,73.72,0,0,0-14.21,11.42A62.85,62.85,0,0,0,399,637c1.45,8,4.07,13.4,7.69,20.85,1,2,2,4.14,3.1,6.47a255.56,255.56,0,0,1,11.38,29.13l31.23,79.75L462.11,791a59.34,59.34,0,0,1,3,5.6,58.46,58.46,0,0,1,4.19,12.27,3.54,3.54,0,0,1,0,1.45l-1.7,7.71a3.39,3.39,0,0,1-.56,1.24l-4.66,6.53a3.44,3.44,0,0,1-2.78,1.45l-48.09.73-19,9.3a55.6,55.6,0,0,1-7.44,3.63,56.29,56.29,0,0,1-13.46,3.51,58.74,58.74,0,0,1-6.41.36,56.24,56.24,0,0,1-10.14-.92c-1.45-.27-2.93-.61-4.38-1l-19.31-4.37a3.46,3.46,0,0,1-2.41-2l-4-9.34a3.35,3.35,0,0,1-.24-.86l-1.21-8.51a3.43,3.43,0,0,1,1.6-3.37,70,70,0,0,1,9.35-4.82,71.29,71.29,0,0,1,11.76-3.78l.23-.06a173.88,173.88,0,0,0,22-7l12.08-12.57.21-.19a36.34,36.34,0,0,0,4.08-4.25,35.36,35.36,0,0,0,4.32-6.75c-1.64-4.62-3.38-9.27-5.2-13.84a388.36,388.36,0,0,0-45-82.22,199.3,199.3,0,0,1-34.3-62.63A196.21,196.21,0,0,1,296.44,581a3.43,3.43,0,0,1,0-.64,50.84,50.84,0,0,1,6-21.23,52,52,0,0,1,20.79-20.68l33.55-30.7a3.7,3.7,0,0,1,.65-.47c12.45-6.93,24.7-13.36,36.42-19.13a152,152,0,0,1,21-10.91l.44-.19a17.73,17.73,0,0,0,7.4-4.26,17.26,17.26,0,0,0,4.73-8.27A70.89,70.89,0,0,0,416,450.21c-4-3.84-5-3.92-12.11-10.16-3-2.64-7.27-6.42-12.21-11.66-6.08-6.45-6.08-7.58-9.91-10.95-4.29-3.77-6.78-4.4-13.68-8.44-9.61-5.62-18.71-13.32-29.55-15.5-3.53-.71-6.48,1.14-8.58,3a24,24,0,0,0-2.71,3.23c-1.94,2.52-3.48,4.51-5.1,6.88-.91,1.32-1.54,2.32-1.82,2.76-6.11,9.57-9.17,14.35-13.18,17.86a35.28,35.28,0,0,1-11,6.38c-6.07,2.21-11.16,2.18-17.3,2.08a101.34,101.34,0,0,1-16.58-1.79c-11.79-2-10.93-1.75-28.14-6.36-8.23-2.21-16.5-4.74-24.58-7.52a3.64,3.64,0,0,1-.69-.33c-15.9-9.76-47.67-29.31-63.55-39.1a3.16,3.16,0,0,1-.77-.64c-10-11.25-30.17-33.71-40.18-45A43,43,0,0,1,98,325.26c-3.2-6.69-4-13.13-2.3-19.15A24.56,24.56,0,0,1,96.83,303a25.18,25.18,0,0,1,1.85-3.42,3.47,3.47,0,0,1,2-1.45c1-.29,2-.52,3.08-.71a34.32,34.32,0,0,1,3.47-.45c.87-.07,1.73-.1,2.57-.1a35.22,35.22,0,0,1,9.76,1.41,39.42,39.42,0,0,1,8.14,3.42,3.6,3.6,0,0,1,.67.49c10.27,9.52,20.93,18.91,31.69,27.91,10.44,8.75,20.39,18.57,32.09,25.55C202,361.51,212.73,366,223.55,370c4.14,1.51,8.76,2.29,13.54,3.26,9.79,2,19.09,5.4,27.08,3.56,7-1.61,10.14-7.4,12.56-10.31,3.07-3.69,2.32-4.09,8.12-12.68,3.77-5.57,5.48-7.46,7.45-12,3-6.89,2.09-9.54,1.51-10.68a11.69,11.69,0,0,0-3.76-4.17c-.87-.48-1.05-.46-2.5-1.34s-2.06-1.35-3.49-2.07a9.26,9.26,0,0,0-1.54-.61,10.62,10.62,0,0,0-3.58-.29,9,9,0,0,0-4.6.86,16.1,16.1,0,0,0-5.86,5.52c-7.78,11.18-7,13.69-9.74,15.76a25.27,25.27,0,0,1-7.37,3.93,3.43,3.43,0,0,1-2.06.06,31.36,31.36,0,0,1-7.8-3.35,42,42,0,0,1-5.8-4.51c-2.71-2.38-8-7.76-11.39-8.92-4.8-1.61-20.26.31-20.28.31a3.43,3.43,0,0,1-3.45-3.3c-.11-3.12.36-9.46-.43-12.49-.74-2.81-3.78-7.91-5.38-10.36a211.56,211.56,0,0,0-18.89-23.3c-5.92-6.12-11.68-12.07-15.55-19.29-1-1.92-2-3.92-2.83-6a3.38,3.38,0,0,1-.23-1.63,86.19,86.19,0,0,1,1.36-8.76,81.09,81.09,0,0,1,6.28-18.95c1.43-2.94,4.69-8.64,6-11.66a4.11,4.11,0,0,1,.69-1.18l8.8-9.89a2.78,2.78,0,0,1,1-.74,60,60,0,0,1,9.18-3.36,39.32,39.32,0,0,1,9.63-.74,56.68,56.68,0,0,1,16,2.58c8.17,2.49,11.82,5.31,19.71,9.5,16,8.48,16.42,5.23,31.59,13.34,8.28,4.43,10.32,6.7,20.86,11.85,5.94,2.9,10.82,5.45,14.34,6.25,2.38.54,6.08.14,10.15-1.23a27,27,0,0,0,14.42-12.18,138.33,138.33,0,0,1,13.91-19.44,112.68,112.68,0,0,1,12.35-12.85h0c8.06-6.36,14.3-10.94,16.82-12.79,19.06-14,18.6-13.91,20.09-14.54,7.56-3.19,14.37-3.61,20.76-4a79.11,79.11,0,0,1,18.91,1,74,74,0,0,1,17.6,5.56c21.3,9.54,28,9,62.62,24.71,20.95,9.51,47.16,25,79.21,42.29,10.67,5.77,21.63,10.84,31.66,16.9.9.55,5.55,3.63,11.12,7.31,4.21,2.78,7.59,5.17,9.92,6.58,4.54,2.73,9.48,5.15,12.17,10.73a20.42,20.42,0,0,1,1.67,11.7,3.4,3.4,0,0,1-1.5,2.39A34.59,34.59,0,0,1,644.29,301a21.21,21.21,0,0,1-4,.81,35.91,35.91,0,0,1-4,.26c-3.84,0-6.89-1.6-12.89-3.27-5.76-1.6-6.64-1.16-11.06-2.89-1.39-.54-1.74-.76-5.19-2.23C603,292,600,290.8,599,290.39c-3.36-1.35-11.45-5.23-33.17-14.46q-27.79-11.82-56-22.69c-11-4.22-22-8.43-33.17-12-6.83-2.18-12.82-3.38-17.38-4.45-11.6-2.7-15.72-3.15-18.95-3.33a62.16,62.16,0,0,0-11.51.22c-7.46.87-13.48,2.74-17.15,4.78a14.92,14.92,0,0,0-4.94,4.67c-2.28,3.13-1.77,4.54-4.46,9.84a9.55,9.55,0,0,0-.91,2.63,6,6,0,0,0,.24,3.94c.83,1.58,2.89,3.52,5.13,6.05,2.09,2.35,7.33,11.28,21,23.55,2.65,2.38,6.42,5.56,10.83,9.49,9,8.05,17,17.25,26.58,24.67,6.6,5.13,14.28,9.47,21.66,14.84,11.5,8.36,21.23,17.59,31.29,24.91,13.14,9.57,25,25.68,41.3,39.84a329.73,329.73,0,0,1,46.48,49.61c3.16,8.27,6.32,13.37,9.48,21.64l21.18,26L677,556.32,725.4,610l25.81,8.71.34.14L779,631.5a4.09,4.09,0,0,1,.46.25l11.79,7.75a4.25,4.25,0,0,1,.47.37l15.09,14.19a3.27,3.27,0,0,1,.72,1,341.86,341.86,0,0,0,18.72,33,332.2,332.2,0,0,0,35.53,45.93c3.15,3.39,6.4,6.74,9.66,10a122.33,122.33,0,0,0,15.28,5c1.07.27,2.12.52,3.16.76,0,0,2,.47,3.9.82a50.34,50.34,0,0,0,8,.65l1.34,0a31.6,31.6,0,0,1,14.12,4.3,3.25,3.25,0,0,1,1,.84,22.15,22.15,0,0,1,3.81,6.82c1.84,5.38,1,9.93,0,14.74-.34,1.77-.7,3.6-1,5.62a56.54,56.54,0,0,0,0,14.24,2.93,2.93,0,0,1,0,.41v38.8a3.3,3.3,0,0,1-.43,1.65q-5.84,11.1-11.69,22.2a7.82,7.82,0,0,1-6.49,4.88l-12.23,3.08A27.88,27.88,0,0,1,878.8,871.33Z"/></svg>